<svg xmlns="http://www.w3.org/2000/svg" viewBox="0 0 2004.53 571.57"><defs><style>.cls-1{fill:#e90d2c;}</style></defs><title>UNA</title><g id="Camada_2" data-name="Camada 2"><g id="Camada_1-2" data-name="Camada 1"><path class="cls-1" d="M2004.11,287.55c-2.31,35.77,4.17,82.46-3.33,128.85-11.68,72.27-57.45,115.62-129.24,127.86-58,9.89-115.6,12.15-172.66-1.29-90.75-21.37-136.54-83.1-122.56-185.8,11.51-84.54,71.24-115.64,141.52-125.29,53.23-7.3,106.8-4.54,160.24-4.52,15.74,0,22.69-4.16,20.78-20.52-1-8.29-.15-16.79-.15-25.2,0-62.89-30.67-81.94-83.89-86.47-46.11-3.92-93-3.9-139.09,6.8-11.53,2.68-27.67,8.35-36.23-4-8.27-11.89-2.35-26.51,2.82-39.5C1658.43,18,1680.46,2.31,1723.69,2.6c51,.35,101.93-3.87,152.7,8.45,80,19.41,126,73.34,127.6,155.74C2004.68,203.46,2004.11,240.16,2004.11,287.55Zm-179.67,22v.15c-14.51,0-29.06-.6-43.53.16a424.32,424.32,0,0,0-45.44,4.6c-32.66,5.31-52.26,29.51-54.46,66-2.23,37,14.17,62.49,46,72.09,33.63,10.13,67.89,10.62,101.87,4.13,48.81-9.32,66.33-29,69.47-75.75,1.28-19,.3-38.17.68-57.25.21-10.66-3.92-14.81-15.07-14.33C1864.17,310.17,1844.29,309.56,1824.44,309.56Z"/><path class="cls-1" d="M1123.6,359.77c0,55-.42,110,.24,165,.22,18.75-7,25.38-25.76,25.73-48.32.91-83.54-30.94-83.77-79.43-.43-90.15-2.15-180.36.55-270.43,3.81-127.08,68.22-181.13,175.46-196,63.13-8.73,128-7.52,188,22.94,59.3,30.06,89.33,80.4,93.75,143.85,8.12,116.57,2.68,233.52,3.79,350.3.23,23.91-7.06,29.94-30.48,28.76-49.12-2.47-78.29-32.15-78.58-81.85-.47-84,.15-168.07-.25-252.1a314.58,314.58,0,0,0-4.41-47.81c-4.56-28.58-24.16-47.11-49.3-55-38-12-77.19-13.16-117.38-4.77-57,11.91-71.15,48.47-71.47,90.33-.41,53.48-.1,107-.1,160.44Z"/><path class="cls-1" d="M445.54,201.78c0-52.73.86-105.48-.4-158.18-.54-22.73,11.16-28,29.58-27,49,2.68,80.27,34.78,80.3,82.83.06,83.3.41,166.6-.08,249.9-.29,49.82,24.14,91.8,88.22,94.44,35,1.44,69.56,4.34,103.73-8.14C774.47,425.58,787.75,405.55,794,379c3.68-15.68,4.14-31.72,4.12-47.83q-.23-142.14,0-284.28c0-28.27,3.76-31.94,31.91-30.23,45.32,2.75,75.47,34.34,76.2,76.77,1.62,95.36,6,191-2.54,286.24-7.87,87.71-61.65,145-149.54,163.1-58.19,12-117.13,12-174.45-4.81-84.29-24.68-132.2-90-133.84-180.25-.94-51.95-.17-103.93-.17-155.9Z"/><path class="cls-1" d="M66.28,1.85C137.07-7.54,175.19,33.47,205.83,89.5c33.13,60.57,69,119.65,104,179.17,6.42,10.91,7,19.07-.32,31-26.81,44-49.85,90.31-77.85,133.46-21.21,32.69-33.27,70.94-61.47,99.26-23.9,24-51.08,40-86.25,39.15-19.84-.47-39.71.35-59.55-.26C5.22,570.7-5.24,555.85,2.94,538.66,17.65,507.75,34.39,477.8,50,447.3Q89.66,369.84,129,292.2c4-7.85.79-14.54-2.93-21.49q-21.43-40.11-42.4-80.47C57.21,139.39,30.46,88.72,4.86,37.47-6.36,15,2.15,2.71,27.33,1.81c6.86-.24,13.75,0,20.62,0ZM63.62,21.12c-6.86,0-13.74-.36-20.56.1-5.85.4-14.24-.3-16.9,3.09-5.2,6.61,3,12,6.05,17.81Q92,156.51,151.54,271c3.63,7,6.41,14,2.39,21.72-16.53,31.81-31.35,64.68-50.08,95.14C74.52,435.58,56.24,488.54,29.21,537.22c-3.43,6.19-4.26,10.8,5,13.25,51.61,13.66,108.91-9.3,136.05-55.84C207.66,430.54,244,365.84,282,302.11c7.78-13.05,8.35-22.53.75-35.32-36-60.74-72-121.52-106.66-183.09C151.06,39.14,114.57,17.84,63.62,21.12Z"/></g></g></svg>